<svg width="20" height="20" viewBox="0 0 20 20" fill="none" xmlns="http://www.w3.org/2000/svg">
<path d="M10.209 0.015447C10.1655 -0.005149 10.0935 -0.005149 10.0488 0.015447L1.74622 3.98146C1.70276 4.00206 1.66675 4.05999 1.66675 4.11019C1.66675 4.11019 1.66675 4.90442 1.66675 9.65566C1.66675 16.3198 9.21185 20 10.1283 20C11.0447 20 18.5898 16.3198 18.5898 9.65566C18.5898 4.90442 18.5898 4.11019 18.5898 4.11019C18.5898 4.05999 18.5538 4.00206 18.5103 3.98018L10.209 0.015447Z" fill="#E7000B"/>
<path d="M15.5129 8.23189H11.8964V4.61536H8.36019V8.23189H4.74365V11.7681H8.36019V15.3846H11.8964V11.7681H15.5129V8.23189Z" fill="white"/>
</svg>
