<svg width="279" height="341" viewBox="0 0 279 341" fill="none" xmlns="http://www.w3.org/2000/svg">
<path style="mix-blend-mode:screen" d="M139.5 0L12.1376 28.3027C5.04572 29.8787 0 36.1688 0 43.4336V198.228C0 229.322 15.5405 258.36 41.4129 275.609L139.5 341V0Z" fill="url(#paint0_radial_3830_833)"/>
<path d="M266.428 30.2549C272.605 31.6276 277 37.1061 277 43.4336V198.228C277 228.653 261.794 257.067 236.478 273.944L139.5 338.596L42.5225 273.944C17.2064 257.067 2 228.653 2 198.228V43.4336C2.00002 37.1062 6.39455 31.6276 12.5713 30.2549L139.499 2.04785L266.428 30.2549Z" stroke="url(#paint1_radial_3830_833)" stroke-width="4" style="mix-blend-mode:screen"/>
<path d="M12.1376 28.3027L139.5 0L266.862 28.3027C273.955 29.8787 279 36.1688 279 43.4336V198.228C279 229.322 263.46 258.36 237.587 275.609L139.5 341L41.4129 275.609C15.5405 258.36 0 229.322 0 198.228V43.4336C0 36.1688 5.04572 29.8787 12.1376 28.3027Z" fill="url(#paint2_radial_3830_833)" style="mix-blend-mode:screen"/>
<g style="mix-blend-mode:screen">
<path d="M139.5 0L12.1376 28.3027C5.04572 29.8787 0 36.1688 0 43.4336V198.228C0 229.322 15.5405 258.36 41.4129 275.609L139.5 341V0Z" fill="url(#paint3_radial_3830_833)" style="mix-blend-mode:screen"/>
<path d="M139.5 0L12.1376 28.3027C5.04572 29.8787 0 36.1688 0 43.4336V198.228C0 229.322 15.5405 258.36 41.4129 275.609L139.5 341V0Z" fill="url(#paint4_radial_3830_833)" style="mix-blend-mode:screen"/>
</g>
<g filter="url(#filter0_ii_3830_833)">
<path d="M152.25 150.2H190.5L126.75 239.8V175.8H88.5L152.25 86.2V150.2Z" fill="#2761FC"/>
</g>
<path d="M150.25 152.2H186.622L128.75 233.538V173.8H92.3779L150.25 92.4607V152.2Z" stroke="url(#paint5_linear_3830_833)" stroke-width="4"/>
<defs>
<filter id="filter0_ii_3830_833" x="88.5" y="71.8" width="116.4" height="168" filterUnits="userSpaceOnUse" color-interpolation-filters="sRGB">
<feFlood flood-opacity="0" result="BackgroundImageFix"/>
<feBlend mode="normal" in="SourceGraphic" in2="BackgroundImageFix" result="shape"/>
<feColorMatrix in="SourceAlpha" type="matrix" values="0 0 0 0 0 0 0 0 0 0 0 0 0 0 0 0 0 0 127 0" result="hardAlpha"/>
<feOffset dy="-4.8"/>
<feGaussianBlur stdDeviation="7.2"/>
<feComposite in2="hardAlpha" operator="arithmetic" k2="-1" k3="1"/>
<feColorMatrix type="matrix" values="0 0 0 0 0 0 0 0 0 0 0 0 0 0 0 0 0 0 0.32 0"/>
<feBlend mode="overlay" in2="shape" result="effect1_innerShadow_3830_833"/>
<feColorMatrix in="SourceAlpha" type="matrix" values="0 0 0 0 0 0 0 0 0 0 0 0 0 0 0 0 0 0 127 0" result="hardAlpha"/>
<feOffset dx="14.4" dy="-14.4"/>
<feGaussianBlur stdDeviation="38.4"/>
<feComposite in2="hardAlpha" operator="arithmetic" k2="-1" k3="1"/>
<feColorMatrix type="matrix" values="0 0 0 0 0 0 0 0 0 0 0 0 0 0 0 0 0 0 0.64 0"/>
<feBlend mode="overlay" in2="effect1_innerShadow_3830_833" result="effect2_innerShadow_3830_833"/>
</filter>
<radialGradient id="paint0_radial_3830_833" cx="0" cy="0" r="1" gradientUnits="userSpaceOnUse" gradientTransform="translate(-74.27 114.394) scale(410.841 475.229)">
<stop offset="0.3"/>
<stop offset="0.4" stop-color="#0B0C19"/>
<stop offset="0.5" stop-color="#031135"/>
<stop offset="0.6" stop-color="#071B50"/>
<stop offset="0.7" stop-color="#092673"/>
<stop offset="0.8" stop-color="#0E359C"/>
<stop offset="0.9" stop-color="#174AD2"/>
<stop offset="1" stop-color="#2761FC"/>
</radialGradient>
<radialGradient id="paint1_radial_3830_833" cx="0" cy="0" r="1" gradientUnits="userSpaceOnUse" gradientTransform="translate(136.481 151.807) scale(230.039 266.07)">
<stop offset="0.3"/>
<stop offset="0.4" stop-color="#0B0C19"/>
<stop offset="0.5" stop-color="#031135"/>
<stop offset="0.6" stop-color="#071B50"/>
<stop offset="0.7" stop-color="#092673"/>
<stop offset="0.8" stop-color="#0E359C"/>
<stop offset="0.9" stop-color="#174AD2"/>
<stop offset="1" stop-color="#2761FC"/>
</radialGradient>
<radialGradient id="paint2_radial_3830_833" cx="0" cy="0" r="1" gradientUnits="userSpaceOnUse" gradientTransform="translate(136.481 151.807) scale(230.039 266.07)">
<stop offset="0.3"/>
<stop offset="0.4" stop-color="#0B0C19"/>
<stop offset="0.5" stop-color="#031135"/>
<stop offset="0.6" stop-color="#071B50"/>
<stop offset="0.7" stop-color="#092673"/>
<stop offset="0.8" stop-color="#0E359C"/>
<stop offset="0.9" stop-color="#174AD2"/>
<stop offset="1" stop-color="#2761FC"/>
</radialGradient>
<radialGradient id="paint3_radial_3830_833" cx="0" cy="0" r="1" gradientUnits="userSpaceOnUse" gradientTransform="translate(-74.27 114.394) scale(410.841 475.229)">
<stop offset="0.3"/>
<stop offset="0.4" stop-color="#0B0C19"/>
<stop offset="0.5" stop-color="#031135"/>
<stop offset="0.6" stop-color="#071B50"/>
<stop offset="0.7" stop-color="#092673"/>
<stop offset="0.8" stop-color="#0E359C"/>
<stop offset="0.9" stop-color="#174AD2"/>
<stop offset="1" stop-color="#2761FC"/>
</radialGradient>
<radialGradient id="paint4_radial_3830_833" cx="0" cy="0" r="1" gradientUnits="userSpaceOnUse" gradientTransform="translate(-74.27 114.394) scale(410.841 475.229)">
<stop offset="0.3"/>
<stop offset="0.4" stop-color="#0B0C19"/>
<stop offset="0.5" stop-color="#031135"/>
<stop offset="0.6" stop-color="#071B50"/>
<stop offset="0.7" stop-color="#092673"/>
<stop offset="0.8" stop-color="#0E359C"/>
<stop offset="0.9" stop-color="#174AD2"/>
<stop offset="1" stop-color="#2761FC"/>
</radialGradient>
<linearGradient id="paint5_linear_3830_833" x1="139.5" y1="86.2" x2="139.5" y2="239.8" gradientUnits="userSpaceOnUse">
<stop stop-color="white" stop-opacity="0"/>
<stop offset="1" stop-color="#2761FC"/>
</linearGradient>
</defs>
</svg>
