<svg width="8" height="10" viewBox="0 0 8 10" fill="none" xmlns="http://www.w3.org/2000/svg">
<path d="M3.82225 2.655C3.45725 2.655 2.89224 2.24 2.29724 2.255C1.51224 2.265 0.792241 2.71 0.387241 3.415C-0.427759 4.83001 0.177241 6.92001 0.972241 8.07001C1.36224 8.63001 1.82224 9.26001 2.43224 9.24001C3.01724 9.21501 3.23725 8.86001 3.94725 8.86001C4.65225 8.86001 4.85225 9.24001 5.47225 9.22501C6.10225 9.21501 6.50225 8.65501 6.88725 8.09001C7.33225 7.44001 7.51725 6.81001 7.52725 6.77501C7.51225 6.77001 6.30225 6.30501 6.28725 4.90501C6.27725 3.735 7.24225 3.175 7.28725 3.15C6.73725 2.345 5.89225 2.255 5.59725 2.235C4.82725 2.175 4.18225 2.655 3.82225 2.655ZM5.12225 1.475C5.44725 1.085 5.66225 0.540002 5.60225 0C5.13725 0.02 4.57725 0.310002 4.24225 0.700002C3.94225 1.045 3.68225 1.6 3.75225 2.13C4.26725 2.17 4.79725 1.865 5.12225 1.475Z" fill="#62626A"/>
</svg>
