<svg width="20" height="20" viewBox="0 0 20 20" fill="none" xmlns="http://www.w3.org/2000/svg">
<path d="M5.05939 3.88087L11.5118 10.3333L10.3333 11.5118L7.46152 8.64002C7.16827 9.13625 7 9.71517 7 10.3333C7 12.1742 8.49238 13.6667 10.3333 13.6667C12.1742 13.6667 13.6667 12.1742 13.6667 10.3333C13.6667 8.56245 12.2858 7.11411 10.5419 7.00643L9.03825 5.50269C9.45133 5.39222 9.88542 5.33333 10.3333 5.33333C13.0947 5.33333 15.3333 7.57191 15.3333 10.3333C15.3333 13.0947 13.0947 15.3333 10.3333 15.3333C7.57191 15.3333 5.33333 13.0947 5.33333 10.3333C5.33333 9.2535 5.67566 8.25357 6.25771 7.43622L5.06678 6.2453C4.18923 7.3742 3.66667 8.79275 3.66667 10.3333C3.66667 14.0153 6.65143 17 10.3333 17C14.0153 17 17 14.0153 17 10.3333C17 6.65143 14.0153 3.66667 10.3333 3.66667C9.40958 3.66667 8.52964 3.85456 7.72975 4.19422L6.47869 2.94316C7.6314 2.34069 8.94258 2 10.3333 2C14.9357 2 18.6667 5.73096 18.6667 10.3333C18.6667 14.9357 14.9357 18.6667 10.3333 18.6667C5.73096 18.6667 2 14.9357 2 10.3333C2 7.73202 3.19191 5.40909 5.05939 3.88087Z" fill="white"/>
</svg>
