<svg width="200" height="50" viewBox="0 0 200 50" fill="none" xmlns="http://www.w3.org/2000/svg">
<rect width="50" height="50" rx="14" fill="#2761FC"/>
<path d="M25.1431 8.0278C25.066 7.99073 24.9384 7.99073 24.8591 8.0278L10.1409 15.1666C10.0638 15.2037 10 15.308 10 15.3983C10 15.3983 10 16.828 10 25.3802C10 37.3756 23.3754 44 25 44C26.6246 44 40 37.3756 40 25.3802C40 16.828 40 15.3983 40 15.3983C40 15.308 39.9362 15.2037 39.8591 15.1643L25.1431 8.0278Z" fill="white"/>
<path d="M19.1111 17C18.937 17 18.77 17.0793 18.6468 17.2203C18.5237 17.3614 18.4545 17.5528 18.4545 17.7523V21.706C18.4545 22.0682 18.5801 22.4156 18.8037 22.6717C19.0272 22.9279 19.3303 23.0718 19.6465 23.0718H21.3564L20.8755 25.2477H17.6566C17.4824 25.2477 17.3154 25.3269 17.1923 25.468C17.0692 25.6091 17 25.8005 17 26C17 26.1995 17.0692 26.3909 17.1923 26.532C17.3154 26.6731 17.4824 26.7523 17.6566 26.7523H20.5427L20.5019 26.937L20.4901 27.023L20.4899 27.0249C20.4654 27.2405 20.4525 27.4576 20.4514 27.6751C20.4519 28.0975 20.4976 28.519 20.5873 28.9282H19.6465C19.3303 28.9282 19.0272 29.0721 18.8037 29.3283C18.5801 29.5844 18.4545 29.9318 18.4545 30.294V34.2477C18.4545 34.4472 18.5237 34.6386 18.6468 34.7797C18.77 34.9207 18.937 35 19.1111 35C19.2852 35 19.4522 34.9207 19.5754 34.7797C19.6985 34.6386 19.7677 34.4472 19.7677 34.2477V30.4329H21.1471C21.548 31.1717 22.1045 31.7838 22.7659 32.2127C23.4474 32.6545 24.217 32.8866 25 32.8866C25.783 32.8866 26.5526 32.6545 27.2341 32.2127C27.8955 31.7838 28.452 31.1717 28.8529 30.4329H30.2323V34.2477C30.2323 34.4472 30.3015 34.6386 30.4246 34.7797C30.5478 34.9207 30.7148 35 30.8889 35C31.063 35 31.23 34.9207 31.3532 34.7797C31.4763 34.6386 31.5455 34.4472 31.5455 34.2477V30.294C31.5455 29.9318 31.4199 29.5844 31.1963 29.3283C30.9728 29.0721 30.6697 28.9282 30.3535 28.9282H29.4129C29.5031 28.5181 29.5491 28.0965 29.5497 27.673C29.5481 27.4566 29.5348 27.2392 29.5101 27.0246L29.5092 27.0168L29.4515 26.7523H32.3434C32.5176 26.7523 32.6846 26.6731 32.8077 26.532C32.9308 26.3909 33 26.1995 33 26C33 25.8005 32.9308 25.6091 32.8077 25.468C32.6846 25.3269 32.5176 25.2477 32.3434 25.2477H29.1214L28.6423 23.0718H30.3535C30.6697 23.0718 30.9728 22.9279 31.1963 22.6717C31.4199 22.4156 31.5455 22.0682 31.5455 21.706V17.7523C31.5455 17.5528 31.4763 17.3614 31.3532 17.2203C31.23 17.0793 31.063 17 30.8889 17C30.7148 17 30.5478 17.0793 30.4246 17.2203C30.3015 17.3614 30.2323 17.5528 30.2323 17.7523V21.5671H28.2638C27.9947 20.8545 27.553 20.2441 26.9902 19.809C26.4031 19.3551 25.711 19.1125 25.0027 19.1125C24.2944 19.1125 23.6023 19.3551 23.0152 19.809C22.4524 20.2441 22.0107 20.8545 21.7415 21.5671H19.7677V17.7523C19.7677 17.5528 19.6985 17.3614 19.5754 17.2203C19.4522 17.0793 19.2852 17 19.1111 17Z" fill="#2761FC" stroke="#2761FC" stroke-width="0.5"/>
<path d="M80.274 16.982C80.274 17.918 80.04 18.7847 79.572 19.582C79.104 20.362 78.4107 20.9947 77.492 21.48C76.5733 21.948 75.4553 22.182 74.138 22.182C72.838 22.182 71.6767 21.9653 70.654 21.532C69.6313 21.0813 68.808 20.44 68.184 19.608C67.5773 18.776 67.2307 17.8053 67.144 16.696H71.044C71.1307 17.4413 71.4253 18.0653 71.928 18.568C72.448 19.0533 73.1327 19.296 73.982 19.296C74.7447 19.296 75.3253 19.0967 75.724 18.698C76.14 18.282 76.348 17.7533 76.348 17.112C76.348 16.54 76.1833 16.072 75.854 15.708C75.5247 15.3267 75.1087 15.0233 74.606 14.798C74.1033 14.5727 73.41 14.3127 72.526 14.018C71.382 13.6367 70.446 13.264 69.718 12.9C68.99 12.5187 68.366 11.9727 67.846 11.262C67.3433 10.5513 67.092 9.624 67.092 8.48C67.092 6.90267 67.6553 5.66333 68.782 4.762C69.926 3.84333 71.434 3.384 73.306 3.384C75.2473 3.384 76.79 3.852 77.934 4.788C79.0953 5.724 79.754 6.972 79.91 8.532H75.958C75.854 7.87333 75.5767 7.336 75.126 6.92C74.6753 6.48667 74.06 6.27 73.28 6.27C72.604 6.27 72.058 6.452 71.642 6.816C71.226 7.16267 71.018 7.674 71.018 8.35C71.018 8.88733 71.174 9.338 71.486 9.702C71.8153 10.0487 72.2227 10.3347 72.708 10.56C73.2107 10.7853 73.8867 11.0367 74.736 11.314C75.9147 11.73 76.868 12.12 77.596 12.484C78.3413 12.848 78.974 13.394 79.494 14.122C80.014 14.85 80.274 15.8033 80.274 16.982ZM90.6705 18.854V22H88.7465C87.1345 22 85.8952 21.61 85.0285 20.83C84.1792 20.05 83.7545 18.75 83.7545 16.93V10.69H81.7525V7.596H83.7545V4.034H87.4205V7.596H90.6445V10.69H87.4205V16.982C87.4205 17.6753 87.5592 18.1607 87.8365 18.438C88.1139 18.7153 88.5819 18.854 89.2405 18.854H90.6705ZM106.855 14.252C106.855 14.616 106.811 15.032 106.725 15.5H96.1685C96.2205 16.7827 96.5672 17.7273 97.2085 18.334C97.8499 18.9407 98.6472 19.244 99.6005 19.244C100.45 19.244 101.152 19.036 101.707 18.62C102.279 18.204 102.643 17.6407 102.799 16.93H106.673C106.482 17.9353 106.075 18.8367 105.451 19.634C104.827 20.4313 104.021 21.0553 103.033 21.506C102.062 21.9567 100.979 22.182 99.7825 22.182C98.3785 22.182 97.1305 21.8873 96.0385 21.298C94.9465 20.6913 94.0972 19.8333 93.4905 18.724C92.8839 17.6147 92.5805 16.306 92.5805 14.798C92.5805 13.29 92.8839 11.9813 93.4905 10.872C94.0972 9.74533 94.9465 8.88733 96.0385 8.298C97.1305 7.70867 98.3785 7.414 99.7825 7.414C101.204 7.414 102.443 7.70867 103.501 8.298C104.575 8.88733 105.399 9.702 105.971 10.742C106.56 11.7647 106.855 12.9347 106.855 14.252ZM103.163 13.888C103.215 12.7093 102.903 11.8167 102.227 11.21C101.568 10.6033 100.753 10.3 99.7825 10.3C98.7945 10.3 97.9625 10.6033 97.2865 11.21C96.6105 11.8167 96.2379 12.7093 96.1685 13.888H103.163ZM113.123 2.76V22H109.457V2.76H113.123ZM120.105 2.76V22H116.439V2.76H120.105ZM129.064 7.414C130.277 7.414 131.317 7.7 132.184 8.272C133.05 8.844 133.666 9.61533 134.03 10.586V7.596H137.67V22H134.03V18.984C133.666 19.9547 133.05 20.7347 132.184 21.324C131.317 21.896 130.277 22.182 129.064 22.182C127.85 22.182 126.758 21.8873 125.788 21.298C124.817 20.7087 124.054 19.8593 123.5 18.75C122.962 17.6233 122.694 16.306 122.694 14.798C122.694 13.29 122.962 11.9813 123.5 10.872C124.054 9.74533 124.817 8.88733 125.788 8.298C126.758 7.70867 127.85 7.414 129.064 7.414ZM130.208 10.612C129.064 10.612 128.145 10.9847 127.452 11.73C126.758 12.4753 126.412 13.498 126.412 14.798C126.412 16.098 126.758 17.1207 127.452 17.866C128.145 18.594 129.064 18.958 130.208 18.958C131.317 18.958 132.227 18.5853 132.938 17.84C133.666 17.0773 134.03 16.0633 134.03 14.798C134.03 13.5153 133.666 12.5013 132.938 11.756C132.227 10.9933 131.317 10.612 130.208 10.612ZM144.658 10.352C145.195 9.43333 145.906 8.714 146.79 8.194C147.674 7.65667 148.662 7.388 149.754 7.388V11.314H148.688C146.001 11.314 144.658 12.562 144.658 15.058V22H140.992V7.596H144.658V10.352ZM78.844 44.308H71.486L70.186 48H66.312L73.072 29.852H77.258L83.992 48H80.118L78.844 44.308ZM77.856 41.526L75.152 33.778L72.448 41.526H77.856ZM94.5506 33.388C96.2146 33.388 97.5406 33.934 98.5286 35.026C99.5166 36.118 100.011 37.652 100.011 39.628V48H96.3706V40.044C96.3706 38.9 96.076 38.016 95.4866 37.392C94.8973 36.7507 94.0913 36.43 93.0686 36.43C92.0286 36.43 91.1966 36.768 90.5726 37.444C89.9486 38.12 89.6366 39.0907 89.6366 40.356V48H85.9706V33.596H89.6366V36.482C90.018 35.5113 90.642 34.7573 91.5086 34.22C92.3926 33.6653 93.4066 33.388 94.5506 33.388ZM110.932 44.854V48H109.008C107.396 48 106.157 47.61 105.29 46.83C104.441 46.05 104.016 44.75 104.016 42.93V36.69H102.014V33.596H104.016V30.034H107.682V33.596H110.906V36.69H107.682V42.982C107.682 43.6753 107.821 44.1607 108.098 44.438C108.376 44.7153 108.844 44.854 109.502 44.854H110.932ZM113.154 29.462C113.154 28.8727 113.362 28.396 113.778 28.032C114.194 27.6507 114.74 27.46 115.416 27.46C116.092 27.46 116.638 27.6507 117.054 28.032C117.47 28.396 117.678 28.8727 117.678 29.462C117.678 30.034 117.47 30.5107 117.054 30.892C116.638 31.256 116.092 31.438 115.416 31.438C114.74 31.438 114.194 31.256 113.778 30.892C113.362 30.5107 113.154 30.034 113.154 29.462ZM117.236 33.596V48H113.57V33.596H117.236ZM126.819 44.334L130.459 33.596H134.359L129.029 48H124.557L119.227 33.596H123.153L126.819 44.334ZM135.98 29.462C135.98 28.8727 136.188 28.396 136.604 28.032C137.02 27.6507 137.566 27.46 138.242 27.46C138.918 27.46 139.464 27.6507 139.88 28.032C140.296 28.396 140.504 28.8727 140.504 29.462C140.504 30.034 140.296 30.5107 139.88 30.892C139.464 31.256 138.918 31.438 138.242 31.438C137.566 31.438 137.02 31.256 136.604 30.892C136.188 30.5107 135.98 30.034 135.98 29.462ZM140.062 33.596V48H136.396V33.596H140.062ZM147.045 36.352C147.582 35.4333 148.293 34.714 149.177 34.194C150.061 33.6567 151.049 33.388 152.141 33.388V37.314H151.075C148.388 37.314 147.045 38.562 147.045 41.058V48H143.379V33.596H147.045V36.352ZM167.95 33.596V48H164.284V45.088C163.903 46.0587 163.27 46.8213 162.386 47.376C161.519 47.9133 160.514 48.182 159.37 48.182C157.706 48.182 156.38 47.636 155.392 46.544C154.404 45.452 153.91 43.9267 153.91 41.968V33.596H157.55V41.552C157.55 42.696 157.845 43.5887 158.434 44.23C159.023 44.854 159.821 45.166 160.826 45.166C161.883 45.166 162.724 44.828 163.348 44.152C163.972 43.476 164.284 42.5053 164.284 41.24V33.596H167.95ZM176.249 33.414C178 33.414 179.404 33.856 180.461 34.74C181.518 35.624 182.177 36.8027 182.437 38.276H179.005C178.866 37.5827 178.554 37.028 178.069 36.612C177.584 36.196 176.951 35.988 176.171 35.988C175.547 35.988 175.062 36.1353 174.715 36.43C174.368 36.7247 174.195 37.1233 174.195 37.626C174.195 38.0247 174.334 38.3453 174.611 38.588C174.888 38.8307 175.235 39.0213 175.651 39.16C176.067 39.2987 176.665 39.4633 177.445 39.654C178.537 39.8967 179.421 40.1567 180.097 40.434C180.79 40.694 181.38 41.1187 181.865 41.708C182.368 42.28 182.619 43.06 182.619 44.048C182.619 45.2787 182.134 46.2753 181.163 47.038C180.21 47.8007 178.918 48.182 177.289 48.182C175.417 48.182 173.918 47.766 172.791 46.934C171.664 46.0847 170.98 44.88 170.737 43.32H174.247C174.334 44.0307 174.646 44.594 175.183 45.01C175.72 45.4087 176.422 45.608 177.289 45.608C177.913 45.608 178.39 45.4607 178.719 45.166C179.048 44.854 179.213 44.4553 179.213 43.97C179.213 43.554 179.066 43.216 178.771 42.956C178.494 42.696 178.138 42.4967 177.705 42.358C177.289 42.2193 176.691 42.0547 175.911 41.864C174.836 41.6213 173.961 41.3787 173.285 41.136C172.626 40.876 172.054 40.4687 171.569 39.914C171.101 39.3593 170.867 38.5967 170.867 37.626C170.867 36.378 171.344 35.364 172.297 34.584C173.25 33.804 174.568 33.414 176.249 33.414Z" fill="#2761FC"/>
</svg>
