<svg width="9" height="10" viewBox="0 0 9 10" fill="none" xmlns="http://www.w3.org/2000/svg">
<g clip-path="url(#clip0_3874_2000)">
<path d="M1.03355 9.46175C1.58983 9.5246 2.21667 9.86638 2.74181 9.92727C3.26902 9.99013 3.43092 9.58746 3.43092 9.58746C3.43092 9.58746 4.02456 9.46175 4.64725 9.448C5.27202 9.43228 5.86151 9.57174 5.86151 9.57174C5.86151 9.57174 5.97567 9.81924 6.18946 9.92924C6.40325 10.0392 6.86404 10.0549 7.15878 9.76031C7.45353 9.46371 8.24227 9.0905 8.68646 8.85676C9.13272 8.62301 9.0497 8.26552 8.77156 8.15748C8.49135 8.04945 8.26303 7.87856 8.27963 7.55053C8.29416 7.22643 8.03263 7.0084 8.03263 7.0084C8.03263 7.0084 8.26303 6.29341 8.04924 5.70021C7.83544 5.11093 7.12972 4.1622 6.58798 3.44917C6.04624 2.73419 6.50703 1.90724 6.01303 0.852435C5.51902 -0.204332 4.24043 -0.141476 3.54924 0.308337C2.86012 0.758151 3.07184 1.87581 3.10505 2.40616C3.13826 2.93258 3.11958 3.31168 3.05731 3.44721C2.99296 3.58471 2.54877 4.08559 2.25196 4.50398C1.95722 4.92433 1.74342 5.79449 1.52756 6.15395C1.31584 6.51144 1.46321 6.83554 1.46321 6.83554C1.46321 6.83554 1.31584 6.88268 1.1996 7.11643C1.08544 7.34821 0.855047 7.45821 0.44407 7.53285C0.0351673 7.61142 0.0351674 7.86285 0.132723 8.14177C0.232354 8.42069 0.132723 8.57783 0.0185622 8.93336C-0.0955983 9.29086 0.47728 9.39889 1.0377 9.45978L1.03355 9.46175ZM6.82668 7.83535C7.11935 7.95713 7.5407 7.7882 7.66732 7.66642C7.79393 7.5466 7.88526 7.36589 7.88526 7.36589C7.88526 7.36589 8.01395 7.42678 7.99942 7.61731C7.98489 7.81177 8.0866 8.08873 8.27963 8.18498C8.47059 8.28123 8.76326 8.4148 8.61174 8.54837C8.45814 8.68194 7.60297 9.008 7.34559 9.26139C7.09236 9.51478 6.76026 9.72103 6.55685 9.66014C6.35136 9.59924 6.17285 9.33603 6.26211 8.94711C6.35343 8.56212 6.43023 8.13784 6.4157 7.89624C6.40117 7.65463 6.35136 7.32857 6.4157 7.28143C6.48005 7.23429 6.58175 7.25589 6.58175 7.25589C6.58175 7.25589 6.53194 7.71356 6.8246 7.83535H6.82668ZM4.92539 1.30225C5.20768 1.30225 5.43392 1.56742 5.43392 1.89349C5.43392 2.21955 5.31976 2.32562 5.15163 2.42187C5.11012 2.40616 5.06446 2.38651 5.01672 2.36687C5.11842 2.31973 5.189 2.19795 5.189 2.05848C5.189 1.91902 5.07068 1.72456 4.92124 1.72456C4.77179 1.72456 4.65348 1.87581 4.65348 2.05848C4.65348 2.24116 4.67008 2.19205 4.69914 2.24509C4.61197 2.2117 4.53102 2.18223 4.46875 2.16063C4.43554 2.08009 4.41478 1.9917 4.41478 1.89545C4.41478 1.56939 4.64103 1.30421 4.92331 1.30421L4.92539 1.30225ZM4.22797 2.31973C4.36704 2.3433 4.74896 2.49848 4.8901 2.54758C5.03125 2.59276 5.18692 2.67919 5.17239 2.76365C5.15579 2.85204 5.08314 2.85204 4.8901 2.96204C4.70122 3.07007 4.28609 3.31168 4.15325 3.32936C4.02041 3.34507 3.94568 3.27632 3.80454 3.18989C3.6634 3.1015 3.39979 2.89722 3.46621 2.78919C3.46621 2.78919 3.67377 2.6399 3.76303 2.5633C3.85228 2.48276 4.08683 2.29616 4.22797 2.32169V2.31973ZM3.61981 1.39653C3.8419 1.39653 4.02248 1.64599 4.02248 1.95634C4.02248 2.2667 4.01626 2.06438 4.00588 2.11741C3.94984 2.13313 3.89587 2.16063 3.8419 2.2058C3.81699 2.22741 3.79209 2.24509 3.76925 2.2667C3.80454 2.20384 3.81699 2.11545 3.80246 2.02116C3.77133 1.8542 3.65302 1.73045 3.53678 1.74813C3.41847 1.76778 3.34997 1.91902 3.37696 2.08795C3.40809 2.25884 3.52433 2.38259 3.64472 2.36294C3.65094 2.36098 3.65717 2.35901 3.66547 2.35705C3.60943 2.41009 3.55546 2.45526 3.49942 2.49258C3.3396 2.42187 3.21921 2.20973 3.21921 1.95831C3.21921 1.64796 3.39771 1.3985 3.61981 1.3985V1.39653ZM2.38065 5.43503C2.60897 5.09325 2.75841 4.34684 2.98674 4.09934C3.21713 3.85185 3.39564 3.32346 3.31469 3.08972C3.31469 3.08972 3.80869 3.64953 4.15117 3.55721C4.49573 3.46292 5.26787 2.91883 5.38411 3.01311C5.49827 3.10739 6.4842 5.15611 6.58175 5.8102C6.68139 6.46233 6.51533 6.96125 6.51533 6.96125C6.51533 6.96125 6.13757 6.86697 6.08983 7.08304C6.04209 7.30107 6.04209 8.09463 6.04209 8.09463C6.04209 8.09463 5.53355 8.76247 4.74481 8.87247C3.95606 8.9805 3.56169 8.90193 3.56169 8.90193L3.11958 8.42266C3.11958 8.42266 3.46413 8.37551 3.41432 8.04749C3.36658 7.72338 2.36197 7.27161 2.18139 6.86697C2.0008 6.46234 2.14817 5.77878 2.38065 5.437V5.43503ZM0.431616 7.88249C0.471053 7.72142 0.981662 7.72142 1.17885 7.60946C1.37603 7.49749 1.41547 7.17339 1.57322 7.08697C1.72889 6.99858 2.01741 7.31089 2.1378 7.48571C2.25403 7.6566 2.70237 8.40301 2.88503 8.58962C3.06976 8.77622 3.23996 9.02568 3.186 9.24764C3.13618 9.47157 2.85805 9.63264 2.85805 9.63264C2.60897 9.70531 1.9157 9.42246 1.6002 9.29675C1.28471 9.17104 0.483507 9.13372 0.379725 9.02372C0.273867 8.91176 0.42954 8.6623 0.473129 8.42659C0.51049 8.18891 0.394254 8.04159 0.433691 7.88052L0.431616 7.88249Z" fill="#62626A"/>
</g>
<defs>
<clipPath id="clip0_3874_2000">
<rect width="9" height="10" fill="white"/>
</clipPath>
</defs>
</svg>
