<svg width="17" height="17" viewBox="0 0 17 17" fill="none" xmlns="http://www.w3.org/2000/svg">
<path d="M1.88087 3.05939L3.66135 4.83986C2.932 5.81367 2.5 7.02308 2.5 8.33333C2.5 11.555 5.11167 14.1667 8.33333 14.1667C11.555 14.1667 14.1667 11.555 14.1667 8.33333C14.1667 5.11167 11.555 2.5 8.33333 2.5C7.02308 2.5 5.81367 2.932 4.83986 3.66135L3.05939 1.88087C4.49595 0.705308 6.33227 0 8.33333 0C12.9357 0 16.6667 3.73096 16.6667 8.33333C16.6667 12.9357 12.9357 16.6667 8.33333 16.6667C3.73096 16.6667 0 12.9357 0 8.33333C0 6.33227 0.705308 4.49595 1.88087 3.05939ZM4.857 6.03551L8.33333 9.51183L9.51183 8.33333L6.03551 4.857C6.69417 4.42073 7.48408 4.16667 8.33333 4.16667C10.6345 4.16667 12.5 6.03215 12.5 8.33333C12.5 10.6345 10.6345 12.5 8.33333 12.5C6.03215 12.5 4.16667 10.6345 4.16667 8.33333C4.16667 7.48408 4.42073 6.69417 4.857 6.03551Z" fill="white"/>
</svg>
