<svg width="18" height="20" viewBox="0 0 18 20" fill="none" xmlns="http://www.w3.org/2000/svg">
<path d="M8.79632 0.0381138C8.75157 0.0177316 8.6774 0.0177316 8.63137 0.0381138L0.0818382 3.96295C0.0370829 3.98334 0 4.04066 0 4.09034C0 4.09034 0 4.87633 0 9.57824C0 16.1731 7.76951 19.8152 8.71321 19.8152C9.6569 19.8152 17.4264 16.1731 17.4264 9.57824C17.4264 4.87633 17.4264 4.09034 17.4264 4.09034C17.4264 4.04066 17.3893 3.98334 17.3446 3.96168L8.79632 0.0381138Z" fill="#2761FC"/>
<mask id="mask0_3874_2068" style="mask-type:luminance" maskUnits="userSpaceOnUse" x="0" y="0" width="18" height="20">
<path d="M8.71321 0L0 4C0 4 0 4.87643 0 9.57835C0 16.1733 7.76951 19.8153 8.71321 19.8153C9.6569 19.8153 17.4264 16.1733 17.4264 9.57835C17.4264 4.87643 17.4264 4 17.4264 4L8.71321 0Z" fill="white"/>
</mask>
<g mask="url(#mask0_3874_2068)">
<path d="M17.6734 0H8.71338V19.8153H17.6734V0Z" fill="#2152D4"/>
</g>
<path opacity="0.2" d="M12.116 10.819L7.27349 16.2254C7.1405 16.3745 6.95253 16.4636 6.7799 16.4585C6.73131 16.4662 6.68527 16.4662 6.64052 16.4585C6.43848 16.3936 6.34641 16.1847 6.41546 15.9528L7.81566 12.3018H5.74286C5.19428 12.3018 4.86821 11.8483 5.01526 11.2904C5.06513 11.098 5.16871 10.9108 5.31193 10.749L10.1532 5.34134C10.3207 5.13879 10.5828 5.04197 10.7849 5.10822C10.9869 5.17318 11.079 5.3821 11.0099 5.61395L9.60971 9.26618H11.6851C12.2336 9.26618 12.5597 9.71968 12.4127 10.2776C12.3615 10.47 12.2592 10.6573 12.116 10.819Z" fill="#0B0C19"/>
<path d="M12.116 9.6189L7.27349 14.9042C7.1405 15.0507 6.95253 15.1361 6.7799 15.1323C6.73131 15.1399 6.68527 15.1399 6.64052 15.1323C6.43848 15.0686 6.34641 14.8648 6.41546 14.638L7.81566 11.0699H5.74286C5.19428 11.0699 4.86821 10.6265 5.01526 10.08C5.06513 9.89278 5.16871 9.70934 5.31193 9.55011L10.1532 4.26475C10.3207 4.06603 10.5828 3.97176 10.7849 4.03673C10.9869 4.10042 11.079 4.30424 11.0099 4.531L9.60971 8.10042H11.6851C12.2336 8.10042 12.5597 8.54374 12.4127 9.09023C12.3615 9.27622 12.2592 9.46093 12.116 9.6189Z" fill="white"/>
<mask id="mask1_3874_2068" style="mask-type:luminance" maskUnits="userSpaceOnUse" x="4" y="4" width="9" height="12">
<path d="M12.116 9.6189L7.27349 14.9042C7.1405 15.0507 6.95253 15.1361 6.7799 15.1323C6.73131 15.1399 6.68527 15.1399 6.64052 15.1323C6.43848 15.0686 6.34641 14.8648 6.41546 14.638L7.81566 11.0699H5.74286C5.19428 11.0699 4.86821 10.6265 5.01526 10.08C5.06513 9.89278 5.16871 9.70934 5.31193 9.55011L10.1532 4.26475C10.3207 4.06603 10.5828 3.97176 10.7849 4.03673C10.9869 4.10042 11.079 4.30424 11.0099 4.531L9.60971 8.10042H11.6851C12.2336 8.10042 12.5597 8.54374 12.4127 9.09023C12.3615 9.27622 12.2592 9.46093 12.116 9.6189Z" fill="white"/>
</mask>
<g mask="url(#mask1_3874_2068)">
<path d="M12.4114 2.23071H8.71338V16.1135H12.4114V2.23071Z" fill="#DFE7F2"/>
</g>
</svg>
