<svg width="20" height="20" viewBox="0 0 20 20" fill="none" xmlns="http://www.w3.org/2000/svg">
<path d="M10 12.6667V14.3334C7.23862 14.3334 5.00004 16.572 5.00004 19.3334H3.33337C3.33337 15.6515 6.31814 12.6667 10 12.6667ZM10 11.8334C7.23754 11.8334 5.00004 9.59587 5.00004 6.83337C5.00004 4.07087 7.23754 1.83337 10 1.83337C12.7625 1.83337 15 4.07087 15 6.83337C15 9.59587 12.7625 11.8334 10 11.8334ZM10 10.1667C11.8417 10.1667 13.3334 8.67504 13.3334 6.83337C13.3334 4.99171 11.8417 3.50004 10 3.50004C8.15837 3.50004 6.66671 4.99171 6.66671 6.83337C6.66671 8.67504 8.15837 10.1667 10 10.1667ZM12.1622 16.6763C12.1106 16.4593 12.0834 16.2329 12.0834 16C12.0834 15.7673 12.1106 15.5409 12.1621 15.3239L11.3358 14.8468L12.1691 13.4034L12.996 13.8808C13.3236 13.571 13.723 13.3362 14.1667 13.2041V12.25H15.8334V13.2041C16.277 13.3362 16.6764 13.571 17.004 13.8808L17.831 13.4033L18.6644 14.8467L17.838 15.3238C17.8895 15.5409 17.9167 15.7673 17.9167 16C17.9167 16.2328 17.8895 16.4592 17.838 16.6762L18.6644 17.1533L17.831 18.5967L17.004 18.1192C16.6765 18.4291 16.2771 18.6639 15.8335 18.7959V19.75H14.1668V18.796C13.7231 18.664 13.3237 18.4292 12.9961 18.1193L12.1692 18.5968L11.3358 17.1534L12.1622 16.6763ZM15 17.25C15.6904 17.25 16.25 16.6904 16.25 16C16.25 15.3097 15.6904 14.75 15 14.75C14.3097 14.75 13.75 15.3097 13.75 16C13.75 16.6904 14.3097 17.25 15 17.25Z" fill="white"/>
</svg>
