<svg width="20" height="20" viewBox="0 0 20 20" fill="none" xmlns="http://www.w3.org/2000/svg">
<path d="M9.99967 12.6667V14.3334C7.23825 14.3334 4.99967 16.572 4.99967 19.3334H3.33301C3.33301 15.6515 6.31777 12.6667 9.99967 12.6667ZM9.99967 11.8334C7.23717 11.8334 4.99967 9.59587 4.99967 6.83337C4.99967 4.07087 7.23717 1.83337 9.99967 1.83337C12.7622 1.83337 14.9997 4.07087 14.9997 6.83337C14.9997 9.59587 12.7622 11.8334 9.99967 11.8334ZM9.99967 10.1667C11.8413 10.1667 13.333 8.67504 13.333 6.83337C13.333 4.99171 11.8413 3.50004 9.99967 3.50004C8.15801 3.50004 6.66634 4.99171 6.66634 6.83337C6.66634 8.67504 8.15801 10.1667 9.99967 10.1667ZM12.1618 16.6763C12.1103 16.4593 12.083 16.2329 12.083 16C12.083 15.7673 12.1103 15.5409 12.1618 15.3239L11.3354 14.8468L12.1688 13.4034L12.9957 13.8808C13.3233 13.571 13.7227 13.3362 14.1663 13.2041V12.25H15.833V13.2041C16.2767 13.3362 16.676 13.571 17.0036 13.8808L17.8306 13.4033L18.664 14.8467L17.8376 15.3238C17.8891 15.5409 17.9163 15.7673 17.9163 16C17.9163 16.2328 17.8891 16.4592 17.8376 16.6762L18.664 17.1533L17.8307 18.5967L17.0037 18.1192C16.6761 18.4291 16.2768 18.6639 15.8331 18.7959V19.75H14.1664V18.796C13.7228 18.664 13.3233 18.4292 12.9958 18.1193L12.1688 18.5968L11.3354 17.1534L12.1618 16.6763ZM14.9997 17.25C15.69 17.25 16.2497 16.6904 16.2497 16C16.2497 15.3097 15.69 14.75 14.9997 14.75C14.3093 14.75 13.7497 15.3097 13.7497 16C13.7497 16.6904 14.3093 17.25 14.9997 17.25Z" fill="#2761FC"/>
</svg>
